<svg width="332" height="124" viewBox="0 0 332 124" fill="none" xmlns="http://www.w3.org/2000/svg">
<rect width="332" height="124" rx="8" fill="#3182F7"/>
<rect x="20" y="17" width="18" height="18" rx="4" fill="white"/>
<path d="M23.4565 29.6364C23.4565 29.7328 23.4979 29.8253 23.5716 29.8935C23.6453 29.9617 23.7452 30 23.8494 30H34.0637C34.1679 30 34.2678 29.9617 34.3415 29.8935C34.4152 29.8253 34.4565 29.7328 34.4565 29.6364V25.2273H23.4565V29.6364ZM25.0771 26.5C25.0771 26.4518 25.0978 26.4055 25.1346 26.3714C25.1714 26.3373 25.2214 26.3182 25.2735 26.3182H27.5324C27.5845 26.3182 27.6345 26.3373 27.6713 26.3714C27.7082 26.4055 27.7289 26.4518 27.7289 26.5V27.9545C27.7289 28.0028 27.7082 28.049 27.6713 28.0831C27.6345 28.1172 27.5845 28.1364 27.5324 28.1364H25.2735C25.2214 28.1364 25.1714 28.1172 25.1346 28.0831C25.0978 28.049 25.0771 28.0028 25.0771 27.9545V26.5ZM34.0637 22H23.8494C23.7452 22 23.6453 22.0383 23.5716 22.1065C23.4979 22.1747 23.4565 22.2672 23.4565 22.3636V23.8636H34.4565V22.3636C34.4565 22.2672 34.4152 22.1747 34.3415 22.1065C34.2678 22.0383 34.1679 22 34.0637 22Z" fill="#3182F7"/>
<path d="M50.032 21.178C52.006 21.178 53.434 22.97 53.434 25.798C53.434 28.654 52.006 30.446 50.032 30.446C48.058 30.446 46.63 28.654 46.63 25.798C46.63 22.97 48.058 21.178 50.032 21.178ZM50.032 22.872C49.066 22.872 48.422 23.894 48.422 25.798C48.422 27.73 49.066 28.766 50.032 28.766C50.998 28.766 51.656 27.73 51.656 25.798C51.656 23.894 50.998 22.872 50.032 22.872ZM56.22 23.292H58.502V24.832H56.22V23.292ZM56.22 27.1H58.502V28.626H56.22V27.1ZM54.848 20.282H56.724V33.246H54.848V20.282ZM67.7689 20.282H69.6449V29.564H67.7689V20.282ZM69.1129 23.894H71.3669V25.42H69.1129V23.894ZM64.1569 21.248H66.1449C66.1449 24.776 63.9889 27.198 60.1249 28.318L59.3409 26.834C62.5189 25.966 64.1569 24.23 64.1569 22.172V21.248ZM59.9009 21.248H65.1649V22.746H59.9009V21.248ZM61.2589 31.538H70.0789V33.022H61.2589V31.538ZM61.2589 28.626H63.1349V32.196H61.2589V28.626ZM75.6358 26.33H77.4838V29.242H75.6358V26.33ZM81.4598 20.282H83.3358V30.04H81.4598V20.282ZM73.9978 31.538H83.6158V33.022H73.9978V31.538ZM73.9978 29.074H75.8598V31.902H73.9978V29.074ZM72.4578 26.652L72.2338 25.182C74.5998 25.168 77.8058 25.126 80.5638 24.748L80.6898 26.064C77.8758 26.568 74.7958 26.638 72.4578 26.652ZM78.9678 27.198H81.8798V28.64H78.9678V27.198ZM73.4098 20.926H78.9118V22.396H73.4098V20.926ZM77.7358 20.926H79.5838V21.374C79.5838 22.13 79.5838 23.53 79.2478 25.462L77.4278 25.336C77.7358 23.418 77.7358 22.102 77.7358 21.374V20.926Z" fill="white"/>
<path opacity="0.8" d="M93.528 31.5V30.864C96.288 28.452 97.548 26.688 97.548 25.188C97.548 24.18 97.032 23.436 95.94 23.436C95.22 23.436 94.596 23.88 94.104 24.456L93.468 23.844C94.188 23.064 94.956 22.548 96.072 22.548C97.644 22.548 98.628 23.568 98.628 25.14C98.628 26.904 97.248 28.692 95.172 30.648C95.64 30.6 96.168 30.564 96.612 30.564H99.048V31.5H93.528ZM102.992 31.668C101.312 31.668 100.244 30.144 100.244 27.072C100.244 24.024 101.312 22.548 102.992 22.548C104.648 22.548 105.716 24.024 105.716 27.072C105.716 30.144 104.648 31.668 102.992 31.668ZM102.992 30.78C103.988 30.78 104.66 29.664 104.66 27.072C104.66 24.516 103.988 23.424 102.992 23.424C101.984 23.424 101.3 24.516 101.3 27.072C101.3 29.664 101.984 30.78 102.992 30.78ZM106.841 31.5V30.864C109.601 28.452 110.861 26.688 110.861 25.188C110.861 24.18 110.345 23.436 109.253 23.436C108.533 23.436 107.909 23.88 107.417 24.456L106.781 23.844C107.501 23.064 108.269 22.548 109.385 22.548C110.957 22.548 111.941 23.568 111.941 25.14C111.941 26.904 110.561 28.692 108.485 30.648C108.953 30.6 109.48 30.564 109.925 30.564H112.361V31.5H106.841ZM117.037 31.5V25.512C117.037 25.068 117.073 24.36 117.109 23.904H117.049C116.833 24.336 116.593 24.78 116.353 25.212L114.349 28.212H119.245V29.076H113.197V28.356L116.857 22.704H118.069V31.5H117.037ZM121.281 31.668C120.849 31.668 120.501 31.32 120.501 30.828C120.501 30.324 120.849 29.988 121.281 29.988C121.725 29.988 122.085 30.324 122.085 30.828C122.085 31.32 121.725 31.668 121.281 31.668ZM126.301 31.668C124.621 31.668 123.553 30.144 123.553 27.072C123.553 24.024 124.621 22.548 126.301 22.548C127.957 22.548 129.025 24.024 129.025 27.072C129.025 30.144 127.957 31.668 126.301 31.668ZM126.301 30.78C127.297 30.78 127.969 29.664 127.969 27.072C127.969 24.516 127.297 23.424 126.301 23.424C125.293 23.424 124.609 24.516 124.609 27.072C124.609 29.664 125.293 30.78 126.301 30.78ZM132.753 31.668C131.385 31.668 130.545 31.092 129.945 30.492L130.497 29.772C130.989 30.288 131.637 30.756 132.645 30.756C133.689 30.756 134.517 29.952 134.517 28.68C134.517 27.42 133.797 26.664 132.705 26.664C132.117 26.664 131.745 26.856 131.241 27.192L130.653 26.82L130.929 22.704H135.213V23.64H131.889L131.661 26.184C132.057 25.968 132.453 25.836 132.981 25.836C134.445 25.836 135.633 26.7 135.633 28.644C135.633 30.564 134.229 31.668 132.753 31.668ZM137.933 31.668C137.501 31.668 137.153 31.32 137.153 30.828C137.153 30.324 137.501 29.988 137.933 29.988C138.377 29.988 138.737 30.324 138.737 30.828C138.737 31.32 138.377 31.668 137.933 31.668ZM140.145 31.5V30.864C142.905 28.452 144.165 26.688 144.165 25.188C144.165 24.18 143.649 23.436 142.557 23.436C141.837 23.436 141.213 23.88 140.721 24.456L140.085 23.844C140.805 23.064 141.573 22.548 142.689 22.548C144.261 22.548 145.245 23.568 145.245 25.14C145.245 26.904 143.865 28.692 141.789 30.648C142.257 30.6 142.785 30.564 143.229 30.564H145.665V31.5H140.145ZM149.429 31.668C148.049 31.668 147.197 31.092 146.621 30.456L147.173 29.736C147.689 30.276 148.349 30.756 149.357 30.756C150.401 30.756 151.145 30.12 151.145 29.112C151.145 28.056 150.437 27.36 148.409 27.36V26.508C150.221 26.508 150.833 25.788 150.833 24.828C150.833 23.988 150.269 23.436 149.357 23.436C148.649 23.436 148.025 23.796 147.533 24.3L146.945 23.592C147.605 22.992 148.385 22.548 149.393 22.548C150.869 22.548 151.949 23.352 151.949 24.756C151.949 25.824 151.325 26.532 150.389 26.868V26.916C151.421 27.168 152.261 27.948 152.261 29.16C152.261 30.72 151.001 31.668 149.429 31.668ZM155.798 33.864C154.682 32.064 154.022 30.144 154.022 27.78C154.022 25.428 154.682 23.484 155.798 21.684L156.47 22.008C155.438 23.712 154.934 25.74 154.934 27.78C154.934 29.82 155.438 31.848 156.47 33.552L155.798 33.864ZM161.976 27.72H162.972V30.42H161.976V27.72ZM162.48 22.296C164.772 22.296 166.416 23.412 166.416 25.14C166.416 26.868 164.772 27.984 162.48 27.984C160.188 27.984 158.532 26.868 158.532 25.14C158.532 23.412 160.188 22.296 162.48 22.296ZM162.48 23.088C160.752 23.088 159.492 23.904 159.492 25.14C159.492 26.376 160.752 27.192 162.48 27.192C164.196 27.192 165.456 26.376 165.456 25.14C165.456 23.904 164.196 23.088 162.48 23.088ZM157.584 30.228H167.412V31.056H157.584V30.228ZM169.943 24.168H177.299V24.984H169.943V24.168ZM168.611 26.028H178.451V26.844H168.611V26.028ZM169.943 21.744H170.915V24.54H169.943V21.744ZM169.835 27.816H177.203V30.36H170.843V31.764H169.859V29.616H176.207V28.584H169.835V27.816ZM169.859 31.512H177.563V32.292H169.859V31.512ZM180.251 33.864L179.567 33.552C180.599 31.848 181.103 29.82 181.103 27.78C181.103 25.74 180.599 23.712 179.567 22.008L180.251 21.684C181.355 23.484 182.015 25.428 182.015 27.78C182.015 30.144 181.355 32.064 180.251 33.864Z" fill="white"/>
<path d="M25.32 55.68H27.48V58.38C27.48 63.14 25.84 67.44 22.16 69.14L20.58 66.94C23.8 65.54 25.32 61.98 25.32 58.38V55.68ZM25.84 55.68H28V58.38C28 61.8 29.46 65.2 32.62 66.56L31.06 68.7C27.48 67.06 25.84 62.94 25.84 58.38V55.68ZM33.5 54.24H36.18V72.82H33.5V54.24ZM47.5384 67.04C51.6384 67.04 53.9584 68.04 53.9584 69.92C53.9584 71.82 51.6384 72.8 47.5384 72.8C43.4384 72.8 41.0984 71.82 41.0984 69.92C41.0984 68.04 43.4384 67.04 47.5384 67.04ZM47.5384 68.94C44.9784 68.94 43.8184 69.24 43.8184 69.92C43.8184 70.62 44.9784 70.9 47.5384 70.9C50.1184 70.9 51.2584 70.62 51.2584 69.92C51.2584 69.24 50.1184 68.94 47.5384 68.94ZM39.9984 55.6H55.0784V57.6H39.9984V55.6ZM47.5784 58.08C51.5584 58.08 53.7784 59 53.7784 60.74C53.7784 62.48 51.5584 63.4 47.5784 63.4C43.5984 63.4 41.3784 62.48 41.3784 60.74C41.3784 59 43.5984 58.08 47.5784 58.08ZM47.5784 59.86C45.2784 59.86 44.2184 60.12 44.2184 60.74C44.2184 61.34 45.2784 61.6 47.5784 61.6C49.8784 61.6 50.9184 61.34 50.9184 60.74C50.9184 60.12 49.8784 59.86 47.5784 59.86ZM46.2384 54.1H48.8984V56.96H46.2384V54.1ZM39.1984 64.18H55.9384V66.22H39.1984V64.18ZM62.1169 55.68H64.2769V58.38C64.2769 63.14 62.6369 67.44 58.9569 69.14L57.3769 66.94C60.5969 65.54 62.1169 61.98 62.1169 58.38V55.68ZM62.6369 55.68H64.7969V58.38C64.7969 61.8 66.2569 65.2 69.4169 66.56L67.8569 68.7C64.2769 67.06 62.6369 62.94 62.6369 58.38V55.68ZM70.2969 54.24H72.9769V72.82H70.2969V54.24ZM87.3866 56.32H89.6866V56.86C89.6866 60.12 87.0266 62.78 82.3266 63.42L81.3466 61.34C85.4266 60.84 87.3866 58.76 87.3866 56.86V56.32ZM88.1466 56.32H90.4466V56.86C90.4466 58.76 92.4066 60.84 96.4866 61.34L95.5266 63.42C90.8066 62.78 88.1466 60.12 88.1466 56.86V56.32ZM87.5266 66H90.1666V72.8H87.5266V66ZM80.5466 64.48H97.2866V66.6H80.5466V64.48ZM82.0266 55.2H95.7666V57.3H82.0266V55.2ZM102.985 59.06H105.045V60.02C105.045 63.92 103.385 67.86 100.025 69.36L98.585 67.32C101.605 65.94 102.985 62.8 102.985 60.02V59.06ZM103.565 59.06H105.625V60.02C105.625 62.66 106.925 65.62 109.825 67.02L108.405 69.04C105.145 67.54 103.565 63.74 103.565 60.02V59.06ZM99.225 57.28H109.305V59.38H99.225V57.28ZM102.965 54.68H105.625V58.36H102.965V54.68ZM110.765 54.26H113.445V72.78H110.765V54.26ZM112.845 61.44H116.125V63.64H112.845V61.44ZM121.443 56.32H123.623V57.48C123.623 61.02 121.963 64.2 118.383 65.38L117.063 63.28C120.143 62.26 121.443 59.84 121.443 57.48V56.32ZM121.983 56.32H124.143V57.48C124.143 59.64 125.383 61.76 128.363 62.66L127.103 64.74C123.583 63.68 121.983 60.78 121.983 57.48V56.32ZM117.763 55.5H127.763V57.62H117.763V55.5ZM129.243 54.26H131.903V65.24H129.243V54.26ZM131.163 58.52H134.363V60.7H131.163V58.52ZM125.863 65.58C129.703 65.58 132.123 66.92 132.123 69.18C132.123 71.44 129.703 72.78 125.863 72.78C122.003 72.78 119.583 71.44 119.583 69.18C119.583 66.92 122.003 65.58 125.863 65.58ZM125.863 67.66C123.503 67.66 122.223 68.14 122.223 69.18C122.223 70.22 123.503 70.74 125.863 70.74C128.223 70.74 129.483 70.22 129.483 69.18C129.483 68.14 128.223 67.66 125.863 67.66Z" fill="white"/>
<path opacity="0.8" d="M21.134 104V102.334H23.374V95.782H21.484V94.508C22.534 94.312 23.234 94.046 23.906 93.64H25.432V102.334H27.378V104H21.134ZM32.3738 104.196C30.3858 104.196 28.9158 103.062 28.9158 101.438C28.9158 100.108 29.7278 99.226 30.6798 98.722V98.666C29.8958 98.092 29.3078 97.294 29.3078 96.202C29.3078 94.536 30.6378 93.472 32.4438 93.472C34.2778 93.472 35.4538 94.564 35.4538 96.216C35.4538 97.252 34.7958 98.106 34.1238 98.596V98.666C35.0758 99.184 35.8598 100.01 35.8598 101.438C35.8598 103.006 34.4598 104.196 32.3738 104.196ZM33.0318 98.092C33.5358 97.56 33.7738 96.972 33.7738 96.356C33.7738 95.502 33.2558 94.914 32.4018 94.914C31.6878 94.914 31.1278 95.376 31.1278 96.202C31.1278 97.168 31.9398 97.658 33.0318 98.092ZM32.4158 102.74C33.3118 102.74 33.9418 102.25 33.9418 101.354C33.9418 100.276 32.9758 99.842 31.6458 99.282C31.0718 99.73 30.6798 100.43 30.6798 101.2C30.6798 102.138 31.4498 102.74 32.4158 102.74ZM38.7836 98.89C38.0416 98.89 37.5096 98.316 37.5096 97.546C37.5096 96.79 38.0416 96.216 38.7836 96.216C39.5116 96.216 40.0716 96.79 40.0716 97.546C40.0716 98.316 39.5116 98.89 38.7836 98.89ZM38.7836 104.196C38.0416 104.196 37.5096 103.622 37.5096 102.852C37.5096 102.082 38.0416 101.522 38.7836 101.522C39.5116 101.522 40.0716 102.082 40.0716 102.852C40.0716 103.622 39.5116 104.196 38.7836 104.196ZM44.8904 104.196C43.2524 104.196 42.1464 103.594 41.4184 102.754L42.3984 101.452C43.0144 102.054 43.7564 102.53 44.6944 102.53C45.7584 102.53 46.4724 101.998 46.4724 101.074C46.4724 100.052 45.8704 99.422 43.6164 99.422V97.938C45.5204 97.938 46.1364 97.294 46.1364 96.37C46.1364 95.558 45.6324 95.068 44.7504 95.068C44.0084 95.068 43.4064 95.418 42.7904 95.992L41.7404 94.718C42.6364 93.948 43.6304 93.458 44.8344 93.458C46.8364 93.458 48.1944 94.438 48.1944 96.216C48.1944 97.322 47.5784 98.148 46.4724 98.568V98.638C47.6484 98.974 48.5444 99.828 48.5444 101.2C48.5444 103.104 46.8784 104.196 44.8904 104.196ZM53.4562 104.196C51.3422 104.196 49.9422 102.362 49.9422 98.778C49.9422 95.208 51.3422 93.458 53.4562 93.458C55.5562 93.458 56.9562 95.208 56.9562 98.778C56.9562 102.362 55.5562 104.196 53.4562 104.196ZM53.4562 102.586C54.3522 102.586 55.0102 101.69 55.0102 98.778C55.0102 95.88 54.3522 95.04 53.4562 95.04C52.5602 95.04 51.8882 95.88 51.8882 98.778C51.8882 101.69 52.5602 102.586 53.4562 102.586ZM66.2299 100.122C64.9559 100.122 64.3679 98.876 63.4859 98.876C63.0519 98.876 62.6599 99.198 62.3239 99.8L61.2459 98.988C61.9599 97.84 62.7579 97.406 63.5139 97.406C64.8159 97.406 65.3899 98.652 66.2579 98.652C66.7059 98.652 67.0979 98.33 67.4339 97.728L68.5119 98.54C67.7839 99.688 66.9999 100.122 66.2299 100.122ZM72.7735 104V102.824C75.6015 100.29 77.2535 98.344 77.2535 96.748C77.2535 95.712 76.7075 95.068 75.7135 95.068C74.9435 95.068 74.3415 95.558 73.8095 96.146L72.6755 95.026C73.6275 94.004 74.5655 93.458 75.9795 93.458C77.9255 93.458 79.2415 94.704 79.2415 96.636C79.2415 98.526 77.6735 100.542 75.7835 102.39C76.3015 102.334 76.9875 102.264 77.4775 102.264H79.7175V104H72.7735ZM84.2654 104.196C82.6274 104.196 81.5214 103.594 80.7934 102.754L81.7734 101.452C82.3894 102.054 83.1314 102.53 84.0694 102.53C85.1334 102.53 85.8474 101.998 85.8474 101.074C85.8474 100.052 85.2454 99.422 82.9914 99.422V97.938C84.8954 97.938 85.5114 97.294 85.5114 96.37C85.5114 95.558 85.0074 95.068 84.1254 95.068C83.3834 95.068 82.7814 95.418 82.1654 95.992L81.1154 94.718C82.0114 93.948 83.0054 93.458 84.2094 93.458C86.2114 93.458 87.5694 94.438 87.5694 96.216C87.5694 97.322 86.9534 98.148 85.8474 98.568V98.638C87.0234 98.974 87.9194 99.828 87.9194 101.2C87.9194 103.104 86.2534 104.196 84.2654 104.196ZM90.9692 98.89C90.2272 98.89 89.6952 98.316 89.6952 97.546C89.6952 96.79 90.2272 96.216 90.9692 96.216C91.6972 96.216 92.2572 96.79 92.2572 97.546C92.2572 98.316 91.6972 98.89 90.9692 98.89ZM90.9692 104.196C90.2272 104.196 89.6952 103.622 89.6952 102.852C89.6952 102.082 90.2272 101.522 90.9692 101.522C91.6972 101.522 92.2572 102.082 92.2572 102.852C92.2572 103.622 91.6972 104.196 90.9692 104.196ZM97.0759 104.196C95.4379 104.196 94.3319 103.594 93.6039 102.754L94.5839 101.452C95.1999 102.054 95.9419 102.53 96.8799 102.53C97.9439 102.53 98.6579 101.998 98.6579 101.074C98.6579 100.052 98.0559 99.422 95.8019 99.422V97.938C97.7059 97.938 98.3219 97.294 98.3219 96.37C98.3219 95.558 97.8179 95.068 96.9359 95.068C96.1939 95.068 95.5919 95.418 94.9759 95.992L93.9259 94.718C94.8219 93.948 95.8159 93.458 97.0199 93.458C99.0219 93.458 100.38 94.438 100.38 96.216C100.38 97.322 99.7639 98.148 98.6579 98.568V98.638C99.8339 98.974 100.73 99.828 100.73 101.2C100.73 103.104 99.0639 104.196 97.0759 104.196ZM105.642 104.196C103.528 104.196 102.128 102.362 102.128 98.778C102.128 95.208 103.528 93.458 105.642 93.458C107.742 93.458 109.142 95.208 109.142 98.778C109.142 102.362 107.742 104.196 105.642 104.196ZM105.642 102.586C106.538 102.586 107.196 101.69 107.196 98.778C107.196 95.88 106.538 95.04 105.642 95.04C104.746 95.04 104.074 95.88 104.074 98.778C104.074 101.69 104.746 102.586 105.642 102.586ZM118.668 93.682H119.676V94.214C119.676 96.482 117.268 98.148 114.72 98.582L114.272 97.658C116.498 97.336 118.668 95.88 118.668 94.214V93.682ZM118.962 93.682H119.956V94.214C119.956 95.88 122.14 97.336 124.352 97.658L123.918 98.582C121.356 98.148 118.962 96.482 118.962 94.214V93.682ZM118.71 100.262H119.858V105.092H118.71V100.262ZM113.6 99.646H125.038V100.598H113.6V99.646ZM114.664 93.22H123.932V94.158H114.664V93.22ZM129.559 95.446H130.469V96.524C130.469 99.198 129.013 101.662 127.011 102.656L126.353 101.76C128.215 100.864 129.559 98.708 129.559 96.524V95.446ZM129.783 95.446H130.693V96.524C130.693 98.568 131.967 100.626 133.773 101.522L133.129 102.418C131.155 101.438 129.783 99.044 129.783 96.524V95.446ZM126.703 94.634H133.493V95.572H126.703V94.634ZM129.545 92.66H130.693V95.152H129.545V92.66ZM135.033 92.436H136.209V105.092H135.033V92.436ZM135.929 97.63H138.281V98.596H135.929V97.63ZM151.043 92.422H152.219V105.092H151.043V92.422ZM151.897 97.56H154.235V98.526H151.897V97.56ZM147.809 93.794H148.943C148.943 97.392 147.291 100.64 143.203 102.698L142.559 101.802C146.059 100.024 147.809 97.322 147.809 93.976V93.794ZM143.147 93.794H148.411V94.746H143.147V93.794ZM156.922 95.95H165.504V96.902H156.922V95.95ZM156.922 92.688H158.07V96.37H156.922V92.688ZM155.368 98.372H166.806V99.31H155.368V98.372ZM161.066 100.444C163.768 100.444 165.406 101.27 165.406 102.754C165.406 104.21 163.768 105.05 161.066 105.05C158.364 105.05 156.726 104.21 156.726 102.754C156.726 101.27 158.364 100.444 161.066 100.444ZM161.066 101.354C159.092 101.354 157.902 101.858 157.902 102.754C157.902 103.622 159.092 104.126 161.066 104.126C163.054 104.126 164.23 103.622 164.23 102.754C164.23 101.858 163.054 101.354 161.066 101.354Z" fill="white"/>
<path opacity="0.8" d="M251.52 103.28C249.18 103.28 247.62 102.36 246.5 101.26L247.88 99.4C248.7 100.22 249.76 100.9 251.12 100.9C252.68 100.9 253.74 99.92 253.74 98.16C253.74 96.44 252.74 95.48 251.26 95.48C250.38 95.48 249.9 95.7 249.04 96.26L247.68 95.38L248.1 88.2H256.02V90.66H250.64L250.36 93.8C250.94 93.54 251.46 93.4 252.14 93.4C254.62 93.4 256.7 94.86 256.7 98.1C256.7 101.38 254.24 103.28 251.52 103.28ZM263.697 103.28C260.677 103.28 258.677 100.66 258.677 95.54C258.677 90.44 260.677 87.94 263.697 87.94C266.697 87.94 268.697 90.44 268.697 95.54C268.697 100.66 266.697 103.28 263.697 103.28ZM263.697 100.98C264.977 100.98 265.917 99.7 265.917 95.54C265.917 91.4 264.977 90.2 263.697 90.2C262.417 90.2 261.457 91.4 261.457 95.54C261.457 99.7 262.417 100.98 263.697 100.98ZM275.494 103.28C272.474 103.28 270.474 100.66 270.474 95.54C270.474 90.44 272.474 87.94 275.494 87.94C278.494 87.94 280.494 90.44 280.494 95.54C280.494 100.66 278.494 103.28 275.494 103.28ZM275.494 100.98C276.774 100.98 277.714 99.7 277.714 95.54C277.714 91.4 276.774 90.2 275.494 90.2C274.214 90.2 273.254 91.4 273.254 95.54C273.254 99.7 274.214 100.98 275.494 100.98ZM287.291 103.28C284.271 103.28 282.271 100.66 282.271 95.54C282.271 90.44 284.271 87.94 287.291 87.94C290.291 87.94 292.291 90.44 292.291 95.54C292.291 100.66 290.291 103.28 287.291 103.28ZM287.291 100.98C288.571 100.98 289.511 99.7 289.511 95.54C289.511 91.4 288.571 90.2 287.291 90.2C286.011 90.2 285.051 91.4 285.051 95.54C285.051 99.7 286.011 100.98 287.291 100.98ZM298.808 95.76H301.468V99.82H298.808V95.76ZM306.928 86.26H309.588V100.28H306.928V86.26ZM296.248 102.34H309.988V104.46H296.248V102.34ZM296.248 98.96H298.908V102.9H296.248V98.96ZM294.248 96.56L293.928 94.44C297.308 94.44 301.828 94.4 305.708 93.9L305.868 95.8C301.928 96.46 297.588 96.56 294.248 96.56ZM303.428 97.02H307.508V98.84H303.428V97.02ZM299.888 86.9C302.588 86.9 304.487 88.24 304.487 90.2C304.487 92.18 302.588 93.5 299.888 93.5C297.168 93.5 295.268 92.18 295.268 90.2C295.268 88.24 297.168 86.9 299.888 86.9ZM299.888 88.84C298.648 88.84 297.788 89.3 297.788 90.2C297.788 91.1 298.648 91.56 299.888 91.56C301.108 91.56 301.968 91.1 301.968 90.2C301.968 89.3 301.108 88.84 299.888 88.84Z" fill="white"/>
</svg>
