<svg width="332" height="124" viewBox="0 0 332 124" fill="none" xmlns="http://www.w3.org/2000/svg">
<rect width="332" height="124" rx="8" fill="#EDECEC"/>
<rect x="20" y="17" width="18" height="18" rx="4" fill="#959595"/>
<path d="M23.4565 29.6364C23.4565 29.7328 23.4979 29.8253 23.5716 29.8935C23.6453 29.9617 23.7452 30 23.8494 30H34.0637C34.1679 30 34.2678 29.9617 34.3415 29.8935C34.4152 29.8253 34.4565 29.7328 34.4565 29.6364V25.2273H23.4565V29.6364ZM25.0771 26.5C25.0771 26.4518 25.0978 26.4055 25.1346 26.3714C25.1714 26.3373 25.2214 26.3182 25.2735 26.3182H27.5324C27.5845 26.3182 27.6345 26.3373 27.6713 26.3714C27.7082 26.4055 27.7289 26.4518 27.7289 26.5V27.9545C27.7289 28.0028 27.7082 28.049 27.6713 28.0831C27.6345 28.1172 27.5845 28.1364 27.5324 28.1364H25.2735C25.2214 28.1364 25.1714 28.1172 25.1346 28.0831C25.0978 28.049 25.0771 28.0028 25.0771 27.9545V26.5ZM34.0637 22H23.8494C23.7452 22 23.6453 22.0383 23.5716 22.1065C23.4979 22.1747 23.4565 22.2672 23.4565 22.3636V23.8636H34.4565V22.3636C34.4565 22.2672 34.4152 22.1747 34.3415 22.1065C34.2678 22.0383 34.1679 22 34.0637 22Z" fill="white"/>
<path d="M50.06 28.738C51.012 28.738 51.67 27.716 51.67 25.798C51.67 23.908 51.012 22.872 50.06 22.872C49.094 22.872 48.45 23.908 48.45 25.798C48.45 27.716 49.094 28.738 50.06 28.738ZM50.06 21.206C52.006 21.206 53.448 22.97 53.448 25.798C53.448 28.64 52.006 30.418 50.06 30.418C48.1 30.418 46.672 28.64 46.672 25.798C46.672 22.97 48.1 21.206 50.06 21.206ZM58.474 24.832H56.696V27.086H58.474V28.598H56.696V33.204H54.848V20.31H56.696V23.32H58.474V24.832ZM59.9429 21.276H66.1449C66.1449 24.776 63.9889 27.198 60.1529 28.304L59.3829 26.834C62.2529 26.05 63.8489 24.552 64.1429 22.746H59.9429V21.276ZM63.1489 28.612V31.51H70.0649V32.98H61.3009V28.612H63.1489ZM69.6169 23.908H71.3389V25.42H69.6169V29.536H67.7689V20.31H69.6169V23.908ZM78.9678 27.184H81.4598V20.31H83.3078V30.012H81.4598V28.612H78.9678V27.184ZM75.8738 31.51H83.5878V32.98H74.0258V29.046H75.6498V26.568C74.5158 26.624 73.4378 26.638 72.4858 26.638L72.2618 25.168C73.7738 25.168 75.6218 25.154 77.4978 25.042C77.6518 23.964 77.7218 23.096 77.7498 22.424H73.4378V20.954H79.5838V21.402C79.5838 22.088 79.5838 23.278 79.3598 24.902C79.7658 24.86 80.1718 24.804 80.5638 24.748L80.6898 26.05C79.6398 26.246 78.5618 26.358 77.4838 26.456V29.228H75.8738V31.51Z" fill="#959595"/>
<path opacity="0.8" d="M93.528 31.5V30.852C96.288 28.44 97.56 26.688 97.56 25.176C97.56 24.168 97.032 23.436 95.94 23.436C95.22 23.436 94.596 23.88 94.116 24.456L93.48 23.832C94.2 23.052 94.956 22.536 96.072 22.536C97.644 22.536 98.628 23.568 98.628 25.14C98.628 26.892 97.248 28.68 95.184 30.636C95.64 30.6 96.18 30.552 96.624 30.552H99.06V31.5H93.528ZM102.992 31.656C101.312 31.656 100.244 30.132 100.244 27.072C100.244 24.012 101.312 22.536 102.992 22.536C104.66 22.536 105.728 24.024 105.728 27.072C105.728 30.132 104.66 31.656 102.992 31.656ZM102.992 30.78C103.988 30.78 104.66 29.664 104.66 27.072C104.66 24.504 103.988 23.412 102.992 23.412C101.984 23.412 101.312 24.504 101.312 27.072C101.312 29.664 101.984 30.78 102.992 30.78ZM106.841 31.5V30.852C109.601 28.44 110.873 26.688 110.873 25.176C110.873 24.168 110.345 23.436 109.253 23.436C108.533 23.436 107.909 23.88 107.429 24.456L106.793 23.832C107.513 23.052 108.269 22.536 109.385 22.536C110.957 22.536 111.941 23.568 111.941 25.14C111.941 26.892 110.561 28.68 108.497 30.636C108.953 30.6 109.493 30.552 109.937 30.552H112.372V31.5H106.841ZM114.349 28.2H117.049V25.5C117.049 25.068 117.085 24.36 117.109 23.904H117.061C116.845 24.336 116.605 24.768 116.353 25.2L114.349 28.2ZM117.049 31.5V29.076H113.209V28.356L116.869 22.692H118.081V28.2H119.245V29.076H118.081V31.5H117.049ZM121.293 31.656C120.861 31.656 120.501 31.32 120.501 30.828C120.501 30.324 120.861 29.976 121.293 29.976C121.725 29.976 122.085 30.324 122.085 30.828C122.085 31.32 121.725 31.656 121.293 31.656ZM126.301 31.656C124.621 31.656 123.553 30.132 123.553 27.072C123.553 24.012 124.621 22.536 126.301 22.536C127.969 22.536 129.037 24.024 129.037 27.072C129.037 30.132 127.969 31.656 126.301 31.656ZM126.301 30.78C127.297 30.78 127.969 29.664 127.969 27.072C127.969 24.504 127.297 23.412 126.301 23.412C125.293 23.412 124.621 24.504 124.621 27.072C124.621 29.664 125.293 30.78 126.301 30.78ZM132.753 31.656C131.385 31.656 130.545 31.08 129.957 30.492L130.497 29.772C131.001 30.276 131.637 30.744 132.657 30.744C133.689 30.744 134.529 29.952 134.529 28.668C134.529 27.408 133.809 26.664 132.705 26.664C132.117 26.664 131.745 26.844 131.241 27.18L130.653 26.82L130.929 22.692H135.213V23.64H131.889L131.673 26.184C132.069 25.968 132.453 25.836 132.981 25.836C134.445 25.836 135.633 26.7 135.633 28.632C135.633 30.564 134.241 31.656 132.753 31.656ZM137.945 31.656C137.513 31.656 137.153 31.32 137.153 30.828C137.153 30.324 137.513 29.976 137.945 29.976C138.377 29.976 138.737 30.324 138.737 30.828C138.737 31.32 138.377 31.656 137.945 31.656ZM140.145 31.5V30.852C142.905 28.44 144.177 26.688 144.177 25.176C144.177 24.168 143.649 23.436 142.557 23.436C141.837 23.436 141.213 23.88 140.733 24.456L140.097 23.832C140.817 23.052 141.573 22.536 142.689 22.536C144.261 22.536 145.245 23.568 145.245 25.14C145.245 26.892 143.865 28.68 141.801 30.636C142.257 30.6 142.797 30.552 143.241 30.552H145.677V31.5H140.145ZM149.441 31.656C148.061 31.656 147.197 31.08 146.621 30.456L147.173 29.736C147.689 30.276 148.361 30.744 149.357 30.744C150.401 30.744 151.145 30.12 151.145 29.1C151.145 28.056 150.437 27.348 148.409 27.348V26.508C150.221 26.508 150.845 25.776 150.845 24.828C150.845 23.988 150.269 23.436 149.357 23.436C148.649 23.436 148.025 23.784 147.533 24.288L146.945 23.592C147.605 22.98 148.385 22.536 149.405 22.536C150.881 22.536 151.961 23.352 151.961 24.744C151.961 25.812 151.325 26.52 150.401 26.868V26.916C151.433 27.156 152.261 27.948 152.261 29.148C152.261 30.72 151.001 31.656 149.441 31.656ZM155.798 33.864C154.694 32.064 154.034 30.132 154.034 27.768C154.034 25.416 154.694 23.472 155.798 21.684L156.482 21.996C155.438 23.712 154.946 25.728 154.946 27.768C154.946 29.808 155.438 31.836 156.482 33.54L155.798 33.864ZM159.516 25.152C159.516 26.388 160.776 27.192 162.492 27.192C164.208 27.192 165.456 26.388 165.456 25.152C165.456 23.916 164.208 23.112 162.492 23.112C160.776 23.112 159.516 23.916 159.516 25.152ZM162.984 30.192H167.388V31.008H157.608V30.192H161.988V27.948C159.984 27.804 158.568 26.736 158.568 25.152C158.568 23.436 160.212 22.332 162.492 22.332C164.76 22.332 166.392 23.436 166.392 25.152C166.392 26.736 164.988 27.804 162.984 27.948V30.192ZM177.275 24.192V24.984H169.967V21.78H170.939V24.192H177.275ZM170.867 30.336V31.476H177.539V32.244H169.883V29.604H176.195V28.572H169.859V27.804H177.179V30.336H170.867ZM168.647 26.04H178.415V26.844H168.647V26.04ZM180.251 33.864L179.579 33.54C180.611 31.836 181.115 29.808 181.115 27.768C181.115 25.728 180.611 23.712 179.579 21.996L180.251 21.684C181.367 23.472 182.027 25.416 182.027 27.768C182.027 30.132 181.367 32.064 180.251 33.864Z" fill="#959595"/>
<path d="M28 55.72V58.4C28 61.82 29.46 65.18 32.58 66.52L31.08 68.66C28.96 67.7 27.54 65.88 26.72 63.62C25.9 66.08 24.4 68.06 22.2 69.1L20.62 66.92C23.84 65.54 25.36 61.98 25.36 58.4V55.72H28ZM33.48 54.28H36.12V72.76H33.48V54.28ZM55.0384 55.64V57.62H40.0584V55.64H46.2584V54.12H48.8984V55.64H55.0384ZM50.9184 60.76C50.9184 60.14 49.8784 59.88 47.5784 59.88C45.2984 59.88 44.2384 60.14 44.2384 60.76C44.2384 61.34 45.2984 61.62 47.5784 61.62C49.8784 61.62 50.9184 61.34 50.9184 60.76ZM41.4184 60.76C41.4184 59 43.6384 58.1 47.5784 58.1C51.5384 58.1 53.7584 59 53.7584 60.76C53.7584 62.48 51.5384 63.38 47.5784 63.38C43.6384 63.38 41.4184 62.48 41.4184 60.76ZM47.5384 70.86C50.0984 70.86 51.2384 70.56 51.2384 69.88C51.2384 69.2 50.0984 68.9 47.5384 68.9C44.9784 68.9 43.8384 69.2 43.8384 69.88C43.8384 70.56 44.9784 70.86 47.5384 70.86ZM47.5384 67.02C51.5984 67.02 53.9384 68 53.9384 69.88C53.9384 71.76 51.5984 72.74 47.5384 72.74C43.4984 72.74 41.1584 71.76 41.1584 69.88C41.1584 68 43.4984 67.02 47.5384 67.02ZM39.2584 64.16H55.8984V66.2H39.2584V64.16ZM64.7969 55.72V58.4C64.7969 61.82 66.2569 65.18 69.3769 66.52L67.8769 68.66C65.7569 67.7 64.3369 65.88 63.5169 63.62C62.6969 66.08 61.1969 68.06 58.9969 69.1L57.4169 66.92C60.6369 65.54 62.1569 61.98 62.1569 58.4V55.72H64.7969ZM70.2769 54.28H72.9169V72.76H70.2769V54.28ZM94.7266 61.56L92.1266 61.3C92.5466 59.66 92.6066 58.42 92.6066 57.2H82.4866V55.12H95.2466V56.64C95.2466 58.1 95.2466 59.66 94.7266 61.56ZM88.8066 70.74C91.3066 70.74 92.7266 70.24 92.7266 69.26C92.7266 68.26 91.3066 67.76 88.8066 67.76C86.3266 67.76 84.9066 68.26 84.9066 69.26C84.9066 70.24 86.3266 70.74 88.8066 70.74ZM88.8066 65.78C92.7866 65.78 95.3466 67.1 95.3466 69.26C95.3466 71.4 92.7866 72.72 88.8066 72.72C84.8466 72.72 82.2866 71.4 82.2866 69.26C82.2866 67.1 84.8466 65.78 88.8066 65.78ZM89.4066 62.54H97.2066V64.62H80.6266V62.54H86.7666V59.32H89.4066V62.54ZM101.725 59.8C101.725 61.22 102.705 62.08 104.065 62.08C105.425 62.08 106.425 61.22 106.425 59.8C106.425 58.36 105.425 57.52 104.065 57.52C102.705 57.52 101.725 58.36 101.725 59.8ZM111.745 58.8H108.825C108.885 59.12 108.925 59.44 108.925 59.8C108.925 60.14 108.885 60.46 108.805 60.8H111.745V58.8ZM111.745 62.9H107.645C106.765 63.78 105.505 64.3 104.065 64.3C101.345 64.3 99.225 62.4 99.225 59.8C99.225 57.18 101.345 55.28 104.065 55.28C105.545 55.28 106.805 55.82 107.685 56.7H111.745V54.3H114.385V65.1H111.745V62.9ZM108.145 70.7C110.565 70.7 111.865 70.18 111.865 69.1C111.865 68.02 110.565 67.5 108.145 67.5C105.725 67.5 104.445 68.02 104.445 69.1C104.445 70.18 105.725 70.7 108.145 70.7ZM108.145 65.46C112.045 65.46 114.465 66.8 114.465 69.1C114.465 71.38 112.045 72.72 108.145 72.72C104.265 72.72 101.845 71.38 101.845 69.1C101.845 66.8 104.265 65.46 108.145 65.46ZM119.143 63.42L118.183 61.36C121.943 60.9 123.903 59.1 124.163 57.34H118.863V55.24H132.523V57.34H127.303C127.563 59.1 129.503 60.9 133.243 61.36L132.303 63.42C129.083 62.98 126.823 61.6 125.723 59.72C124.623 61.6 122.363 62.98 119.143 63.42ZM134.043 64.48V66.58H126.983V72.76H124.343V66.58H117.403V64.48H134.043ZM142.442 59.4V60.04C142.442 62.64 143.742 65.62 146.622 67L145.222 69C143.262 68.1 141.922 66.38 141.162 64.34C140.362 66.54 138.942 68.4 136.882 69.32L135.462 67.3C138.442 65.92 139.822 62.8 139.822 60.04V59.4H136.082V57.3H139.822V54.74H142.462V57.3H146.102V59.4H142.442ZM152.882 61.46V63.64H150.202V72.72H147.562V54.32H150.202V61.46H152.882ZM165.16 62.66L163.9 64.7C161.88 64.1 160.48 62.88 159.68 61.36C158.86 63.18 157.4 64.64 155.24 65.34L153.92 63.28C156.9 62.28 158.22 59.94 158.26 57.64H154.6V55.52H164.56V57.64H160.96C161 59.74 162.26 61.8 165.16 62.66ZM162.66 70.7C165 70.7 166.26 70.2 166.26 69.16C166.26 68.1 165 67.6 162.66 67.6C160.3 67.6 159.04 68.1 159.04 69.16C159.04 70.2 160.3 70.7 162.66 70.7ZM162.66 65.56C166.48 65.56 168.88 66.9 168.88 69.16C168.88 71.4 166.48 72.72 162.66 72.72C158.82 72.72 156.42 71.4 156.42 69.16C156.42 66.9 158.82 65.56 162.66 65.56ZM168.68 58.54H171.12V60.7H168.68V65.24H166.04V54.3H168.68V58.54Z" fill="#959595"/>
<path opacity="0.8" d="M21.148 104V102.334H23.374V95.782H21.498V94.508C22.534 94.312 23.248 94.046 23.906 93.626H25.432V102.334H27.378V104H21.148ZM32.3601 104.196C30.3861 104.196 28.9021 103.048 28.9021 101.424C28.9021 100.094 29.7141 99.226 30.6801 98.722V98.652C29.8821 98.078 29.3081 97.294 29.3081 96.188C29.3081 94.522 30.6381 93.458 32.4301 93.458C34.2641 93.458 35.4401 94.564 35.4401 96.216C35.4401 97.238 34.7961 98.092 34.1101 98.582V98.652C35.0621 99.17 35.8461 100.01 35.8461 101.424C35.8461 102.992 34.4601 104.196 32.3601 104.196ZM33.0181 98.078C33.5221 97.546 33.7601 96.958 33.7601 96.342C33.7601 95.502 33.2561 94.9 32.3881 94.9C31.6881 94.9 31.1281 95.362 31.1281 96.188C31.1281 97.168 31.9261 97.644 33.0181 98.078ZM32.4161 102.74C33.2981 102.74 33.9281 102.25 33.9281 101.354C33.9281 100.276 32.9761 99.828 31.6321 99.282C31.0721 99.73 30.6801 100.43 30.6801 101.2C30.6801 102.138 31.4501 102.74 32.4161 102.74ZM38.7563 98.876C38.0283 98.876 37.4823 98.302 37.4823 97.546C37.4823 96.776 38.0283 96.202 38.7563 96.202C39.4983 96.202 40.0443 96.776 40.0443 97.546C40.0443 98.302 39.4983 98.876 38.7563 98.876ZM38.7563 104.196C38.0283 104.196 37.4823 103.608 37.4823 102.852C37.4823 102.082 38.0283 101.508 38.7563 101.508C39.4983 101.508 40.0443 102.082 40.0443 102.852C40.0443 103.608 39.4983 104.196 38.7563 104.196ZM44.877 104.196C43.239 104.196 42.133 103.58 41.405 102.754L42.371 101.452C42.987 102.054 43.743 102.516 44.681 102.516C45.731 102.516 46.445 101.998 46.445 101.06C46.445 100.052 45.843 99.408 43.589 99.408V97.938C45.493 97.938 46.109 97.28 46.109 96.356C46.109 95.544 45.605 95.068 44.723 95.068C43.981 95.068 43.379 95.404 42.763 95.978L41.713 94.718C42.609 93.934 43.603 93.444 44.821 93.444C46.823 93.444 48.181 94.438 48.181 96.202C48.181 97.322 47.551 98.134 46.459 98.568V98.638C47.621 98.96 48.517 99.828 48.517 101.186C48.517 103.09 46.851 104.196 44.877 104.196ZM53.4152 104.196C51.3012 104.196 49.9012 102.348 49.9012 98.778C49.9012 95.194 51.3012 93.444 53.4152 93.444C55.5292 93.444 56.9152 95.208 56.9152 98.778C56.9152 102.348 55.5292 104.196 53.4152 104.196ZM53.4152 102.586C54.3112 102.586 54.9692 101.69 54.9692 98.778C54.9692 95.88 54.3112 95.04 53.4152 95.04C52.5192 95.04 51.8472 95.88 51.8472 98.778C51.8472 101.69 52.5192 102.586 53.4152 102.586ZM66.1892 100.108C64.9012 100.108 64.3132 98.876 63.4312 98.876C62.9972 98.876 62.6052 99.184 62.2692 99.8L61.1912 98.988C61.9192 97.84 62.7032 97.406 63.4732 97.406C64.7612 97.406 65.3492 98.638 66.2172 98.638C66.6652 98.638 67.0432 98.33 67.3792 97.714L68.4572 98.54C67.7432 99.674 66.9452 100.108 66.1892 100.108ZM72.7192 104V102.81C75.5332 100.29 77.1992 98.344 77.1992 96.748C77.1992 95.698 76.6392 95.068 75.6452 95.068C74.8892 95.068 74.2732 95.558 73.7412 96.132L72.6212 95.012C73.5732 93.99 74.4972 93.444 75.9112 93.444C77.8712 93.444 79.1732 94.704 79.1732 96.636C79.1732 98.512 77.6192 100.528 75.7292 102.376C76.2472 102.32 76.9332 102.264 77.4232 102.264H79.6632V104H72.7192ZM84.1973 104.196C82.5593 104.196 81.4533 103.58 80.7253 102.754L81.6913 101.452C82.3073 102.054 83.0633 102.516 84.0013 102.516C85.0513 102.516 85.7653 101.998 85.7653 101.06C85.7653 100.052 85.1633 99.408 82.9093 99.408V97.938C84.8133 97.938 85.4293 97.28 85.4293 96.356C85.4293 95.544 84.9253 95.068 84.0433 95.068C83.3013 95.068 82.6993 95.404 82.0833 95.978L81.0333 94.718C81.9293 93.934 82.9233 93.444 84.1413 93.444C86.1433 93.444 87.5013 94.438 87.5013 96.202C87.5013 97.322 86.8713 98.134 85.7793 98.568V98.638C86.9413 98.96 87.8373 99.828 87.8373 101.186C87.8373 103.09 86.1713 104.196 84.1973 104.196ZM90.8735 98.876C90.1455 98.876 89.5995 98.302 89.5995 97.546C89.5995 96.776 90.1455 96.202 90.8735 96.202C91.6155 96.202 92.1615 96.776 92.1615 97.546C92.1615 98.302 91.6155 98.876 90.8735 98.876ZM90.8735 104.196C90.1455 104.196 89.5995 103.608 89.5995 102.852C89.5995 102.082 90.1455 101.508 90.8735 101.508C91.6155 101.508 92.1615 102.082 92.1615 102.852C92.1615 103.608 91.6155 104.196 90.8735 104.196ZM96.9942 104.196C95.3562 104.196 94.2502 103.58 93.5222 102.754L94.4882 101.452C95.1042 102.054 95.8602 102.516 96.7982 102.516C97.8482 102.516 98.5622 101.998 98.5622 101.06C98.5622 100.052 97.9602 99.408 95.7062 99.408V97.938C97.6102 97.938 98.2262 97.28 98.2262 96.356C98.2262 95.544 97.7222 95.068 96.8402 95.068C96.0982 95.068 95.4962 95.404 94.8802 95.978L93.8302 94.718C94.7262 93.934 95.7202 93.444 96.9382 93.444C98.9402 93.444 100.298 94.438 100.298 96.202C100.298 97.322 99.6682 98.134 98.5762 98.568V98.638C99.7382 98.96 100.634 99.828 100.634 101.186C100.634 103.09 98.9682 104.196 96.9942 104.196ZM105.532 104.196C103.418 104.196 102.018 102.348 102.018 98.778C102.018 95.194 103.418 93.444 105.532 93.444C107.646 93.444 109.032 95.208 109.032 98.778C109.032 102.348 107.646 104.196 105.532 104.196ZM105.532 102.586C106.428 102.586 107.086 101.69 107.086 98.778C107.086 95.88 106.428 95.04 105.532 95.04C104.636 95.04 103.964 95.88 103.964 98.778C103.964 101.69 104.636 102.586 105.532 102.586ZM114.639 98.582L114.205 97.672C116.389 97.35 118.559 95.908 118.559 94.256V94.186H114.597V93.262H123.767V94.186H119.833V94.256C119.833 95.908 122.003 97.35 124.215 97.672L123.767 98.582C121.821 98.246 119.959 97.196 119.203 95.712C118.433 97.196 116.585 98.246 114.639 98.582ZM124.873 99.632L124.887 100.57H119.749V105.036H118.601V100.57H113.533V99.632H124.873ZM130.598 95.572V96.552C130.598 98.568 131.844 100.626 133.65 101.494L133.006 102.39C131.634 101.718 130.57 100.346 130.038 98.736C129.506 100.458 128.358 101.914 126.93 102.614L126.286 101.746C128.12 100.85 129.464 98.722 129.464 96.552V95.572H126.622V94.648H129.45V92.702H130.598V94.648H133.384V95.572H130.598ZM138.13 97.644V98.596H136.058V105.036H134.91V92.478H136.058V97.644H138.13ZM143.08 93.822H148.82C148.82 97.392 147.182 100.626 143.122 102.656L142.492 101.76C145.698 100.15 147.42 97.742 147.686 94.774H143.08V93.822ZM154.084 97.574V98.526H152.068V105.036H150.92V92.478H152.068V97.574H154.084ZM165.353 95.978V96.902H156.827V92.744H157.975V95.978H165.353ZM160.957 104.098C162.917 104.098 164.093 103.58 164.093 102.712C164.093 101.816 162.931 101.312 160.957 101.312C158.983 101.312 157.821 101.816 157.821 102.712C157.821 103.58 158.983 104.098 160.957 104.098ZM160.957 100.416C163.631 100.416 165.255 101.242 165.255 102.712C165.255 104.168 163.631 104.994 160.957 104.994C158.283 104.994 156.659 104.168 156.659 102.712C156.659 101.242 158.283 100.416 160.957 100.416ZM155.301 98.358H166.655V99.296H155.301V98.358Z" fill="#959595"/>
<path opacity="0.8" d="M251.52 103.28C249.18 103.28 247.62 102.36 246.52 101.26L247.88 99.38C248.72 100.2 249.76 100.88 251.14 100.88C252.68 100.88 253.76 99.9 253.76 98.16C253.76 96.44 252.76 95.48 251.26 95.48C250.38 95.48 249.9 95.7 249.04 96.26L247.7 95.38L248.1 88.18H256.02V90.66H250.64L250.36 93.8C250.96 93.52 251.46 93.38 252.14 93.38C254.62 93.38 256.7 94.86 256.7 98.08C256.7 101.38 254.26 103.28 251.52 103.28ZM263.677 103.28C260.657 103.28 258.657 100.64 258.657 95.54C258.657 90.42 260.657 87.92 263.677 87.92C266.697 87.92 268.677 90.44 268.677 95.54C268.677 100.64 266.697 103.28 263.677 103.28ZM263.677 100.98C264.957 100.98 265.897 99.7 265.897 95.54C265.897 91.4 264.957 90.2 263.677 90.2C262.397 90.2 261.437 91.4 261.437 95.54C261.437 99.7 262.397 100.98 263.677 100.98ZM275.455 103.28C272.435 103.28 270.435 100.64 270.435 95.54C270.435 90.42 272.435 87.92 275.455 87.92C278.475 87.92 280.455 90.44 280.455 95.54C280.455 100.64 278.475 103.28 275.455 103.28ZM275.455 100.98C276.735 100.98 277.675 99.7 277.675 95.54C277.675 91.4 276.735 90.2 275.455 90.2C274.175 90.2 273.215 91.4 273.215 95.54C273.215 99.7 274.175 100.98 275.455 100.98ZM287.232 103.28C284.212 103.28 282.212 100.64 282.212 95.54C282.212 90.42 284.212 87.92 287.232 87.92C290.252 87.92 292.232 90.44 292.232 95.54C292.232 100.64 290.252 103.28 287.232 103.28ZM287.232 100.98C288.512 100.98 289.452 99.7 289.452 95.54C289.452 91.4 288.512 90.2 287.232 90.2C285.952 90.2 284.992 91.4 284.992 95.54C284.992 99.7 285.952 100.98 287.232 100.98ZM303.369 97H306.829V86.3H309.469V100.26H306.829V98.8H303.369V97ZM299.829 88.84C298.589 88.84 297.729 89.32 297.729 90.22C297.729 91.12 298.589 91.58 299.829 91.58C301.049 91.58 301.909 91.12 301.909 90.22C301.909 89.32 301.049 88.84 299.829 88.84ZM299.829 93.5C297.129 93.5 295.249 92.18 295.249 90.22C295.249 88.26 297.129 86.92 299.829 86.92C302.509 86.92 304.409 88.26 304.409 90.22C304.409 92.18 302.509 93.5 299.829 93.5ZM298.849 102.3H309.869V104.4H296.209V98.92H298.769V96.46C297.149 96.54 295.609 96.56 294.229 96.56L293.889 94.46C297.249 94.44 301.729 94.4 305.609 93.9L305.789 95.78C304.349 96.02 302.869 96.18 301.389 96.3V99.78H298.849V102.3Z" fill="#959595"/>
</svg>
